<?xml version="1.0" standalone="no"?>
<!DOCTYPE svg PUBLIC "-//W3C//DTD SVG 20010904//EN"
 "http://www.w3.org/TR/2001/REC-SVG-20010904/DTD/svg10.dtd">
<svg version="1.0" xmlns="http://www.w3.org/2000/svg"
 width="840.000000pt" height="888.000000pt" viewBox="0 0 840.000000 888.000000"
 preserveAspectRatio="xMidYMid meet">
<g transform="translate(0.000000,888.000000) scale(0.100000,-0.100000)"
fill="#D7D7D7" stroke="none">
<path d="M4415 8468 c-400 -20 -792 -173 -1124 -440 -100 -80 -2570 -2550
-2648 -2648 -442 -552 -562 -1283 -318 -1935 337 -900 1271 -1423 2220 -1244
205 39 522 160 654 252 l35 24 1 279 c1 303 10 387 65 622 105 440 335 863
645 1183 41 43 75 81 75 86 0 4 -370 378 -822 830 l-823 823 580 581 c319 320
618 615 665 656 191 169 389 268 648 325 140 31 403 30 552 -1 561 -119 986
-559 1086 -1124 35 -197 16 -467 -47 -660 -74 -228 -172 -380 -384 -596 -139
-142 -147 -153 -116 -147 178 34 538 50 713 32 l77 -8 52 79 c28 43 79 137
114 208 134 276 195 546 195 856 0 532 -197 1013 -569 1388 -406 410 -931 609
-1526 579z"/>
<path d="M5683 5120 c-833 -60 -1544 -526 -1940 -1270 -107 -200 -194 -466
-235 -715 -29 -177 -32 -544 -5 -713 58 -360 178 -671 368 -956 49 -72 97
-142 108 -156 l20 -25 1658 1657 1657 1657 -20 22 c-36 40 -286 199 -408 259
-379 186 -798 269 -1203 240z"/>
<path d="M6010 2585 c-1026 -1026 -1651 -1658 -1645 -1663 31 -29 173 -127
255 -176 277 -168 596 -279 925 -322 129 -17 420 -19 555 -4 319 35 630 136
902 292 677 388 1111 1057 1187 1832 56 562 -109 1156 -447 1618 -32 43 -62
77 -67 78 -6 0 -755 -745 -1665 -1655z"/>
</g>
</svg>
